<mxfile host="app.diagrams.net" modified="2021-09-11T07:48:32.509Z" agent="5.0 (Windows NT 10.0; Win64; x64) AppleWebKit/537.36 (KHTML, like Gecko) Chrome/93.0.4577.63 Safari/537.36" etag="Oc33mjkVzU2z4g3zzUwv" version="15.1.4" type="github">
  <diagram id="kgpKYQtTHZ0yAKxKKP6v" name="Page-1">
    <mxGraphModel dx="1422" dy="794" grid="1" gridSize="10" guides="1" tooltips="1" connect="1" arrows="1" fold="1" page="1" pageScale="1" pageWidth="850" pageHeight="1100" math="0" shadow="0">
      <root>
        <mxCell id="0" />
        <mxCell id="1" parent="0" />
        <mxCell id="i3rzpm_yN1FolRG868D3-19" value="Khách Hàng" style="shape=umlLifeline;perimeter=lifelinePerimeter;container=1;collapsible=0;recursiveResize=0;rounded=0;shadow=0;strokeWidth=1;" vertex="1" parent="1">
          <mxGeometry x="150" y="110" width="100" height="400" as="geometry" />
        </mxCell>
        <mxCell id="i3rzpm_yN1FolRG868D3-20" value="" style="points=[];perimeter=orthogonalPerimeter;rounded=0;shadow=0;strokeWidth=1;" vertex="1" parent="i3rzpm_yN1FolRG868D3-19">
          <mxGeometry x="45" y="80" width="10" height="40" as="geometry" />
        </mxCell>
        <mxCell id="i3rzpm_yN1FolRG868D3-21" value="Thiết bị/Giao diện" style="shape=umlLifeline;perimeter=lifelinePerimeter;container=1;collapsible=0;recursiveResize=0;rounded=0;shadow=0;strokeWidth=1;" vertex="1" parent="1">
          <mxGeometry x="330" y="110" width="100" height="400" as="geometry" />
        </mxCell>
        <mxCell id="i3rzpm_yN1FolRG868D3-22" value="" style="points=[];perimeter=orthogonalPerimeter;rounded=0;shadow=0;strokeWidth=1;" vertex="1" parent="i3rzpm_yN1FolRG868D3-21">
          <mxGeometry x="45" y="120" width="10" height="40" as="geometry" />
        </mxCell>
        <mxCell id="i3rzpm_yN1FolRG868D3-23" value="Nhập nội dung Blogs" style="verticalAlign=bottom;endArrow=block;shadow=0;strokeWidth=1;" edge="1" parent="1" source="i3rzpm_yN1FolRG868D3-20">
          <mxGeometry x="-0.0286" y="1" relative="1" as="geometry">
            <mxPoint x="305" y="190" as="sourcePoint" />
            <mxPoint x="380" y="229" as="targetPoint" />
            <Array as="points">
              <mxPoint x="310" y="230" />
            </Array>
            <mxPoint as="offset" />
          </mxGeometry>
        </mxCell>
        <mxCell id="i3rzpm_yN1FolRG868D3-24" value="Hệ Thống" style="shape=umlLifeline;perimeter=lifelinePerimeter;container=1;collapsible=0;recursiveResize=0;rounded=0;shadow=0;strokeWidth=1;" vertex="1" parent="1">
          <mxGeometry x="500" y="110" width="100" height="400" as="geometry" />
        </mxCell>
        <mxCell id="i3rzpm_yN1FolRG868D3-25" value="" style="points=[];perimeter=orthogonalPerimeter;rounded=0;shadow=0;strokeWidth=1;" vertex="1" parent="i3rzpm_yN1FolRG868D3-24">
          <mxGeometry x="45" y="160" width="10" height="40" as="geometry" />
        </mxCell>
        <mxCell id="i3rzpm_yN1FolRG868D3-26" value="Yêu cầu hệ&amp;nbsp; thống" style="html=1;verticalAlign=bottom;endArrow=block;entryX=-0.1;entryY=0;entryDx=0;entryDy=0;entryPerimeter=0;" edge="1" parent="1" target="i3rzpm_yN1FolRG868D3-25">
          <mxGeometry x="0.0059" width="80" relative="1" as="geometry">
            <mxPoint x="375" y="270" as="sourcePoint" />
            <mxPoint x="540" y="270" as="targetPoint" />
            <mxPoint as="offset" />
          </mxGeometry>
        </mxCell>
        <mxCell id="i3rzpm_yN1FolRG868D3-27" value="Yêu cầu thành công" style="html=1;verticalAlign=bottom;endArrow=block;exitX=0.5;exitY=1;exitDx=0;exitDy=0;exitPerimeter=0;" edge="1" parent="1" source="i3rzpm_yN1FolRG868D3-25">
          <mxGeometry x="0.0588" width="80" relative="1" as="geometry">
            <mxPoint x="465" y="310" as="sourcePoint" />
            <mxPoint x="380" y="310" as="targetPoint" />
            <mxPoint as="offset" />
          </mxGeometry>
        </mxCell>
        <mxCell id="i3rzpm_yN1FolRG868D3-28" value="Hiển thị bình luận thành công&lt;br&gt;và reload lại trang Blogs" style="html=1;verticalAlign=bottom;endArrow=block;exitX=0.5;exitY=1;exitDx=0;exitDy=0;exitPerimeter=0;" edge="1" parent="1" source="i3rzpm_yN1FolRG868D3-29">
          <mxGeometry width="80" relative="1" as="geometry">
            <mxPoint x="370" y="350" as="sourcePoint" />
            <mxPoint x="200" y="350" as="targetPoint" />
            <mxPoint as="offset" />
          </mxGeometry>
        </mxCell>
        <mxCell id="i3rzpm_yN1FolRG868D3-29" value="" style="points=[];perimeter=orthogonalPerimeter;rounded=0;shadow=0;strokeWidth=1;" vertex="1" parent="1">
          <mxGeometry x="375" y="310" width="10" height="40" as="geometry" />
        </mxCell>
        <mxCell id="i3rzpm_yN1FolRG868D3-30" value="" style="html=1;points=[];perimeter=orthogonalPerimeter;" vertex="1" parent="1">
          <mxGeometry x="545" y="390" width="10" height="40" as="geometry" />
        </mxCell>
        <mxCell id="i3rzpm_yN1FolRG868D3-31" value="" style="edgeStyle=orthogonalEdgeStyle;html=1;align=left;spacingLeft=2;endArrow=block;rounded=0;entryX=1;entryY=0;" edge="1" parent="1" target="i3rzpm_yN1FolRG868D3-30">
          <mxGeometry y="85" relative="1" as="geometry">
            <mxPoint x="555" y="310" as="sourcePoint" />
            <Array as="points">
              <mxPoint x="585" y="310" />
              <mxPoint x="585" y="390" />
            </Array>
            <mxPoint as="offset" />
          </mxGeometry>
        </mxCell>
        <mxCell id="i3rzpm_yN1FolRG868D3-32" value="Yêu cầu thất bại" style="html=1;verticalAlign=bottom;endArrow=block;exitX=0.5;exitY=1;exitDx=0;exitDy=0;exitPerimeter=0;" edge="1" parent="1">
          <mxGeometry width="80" relative="1" as="geometry">
            <mxPoint x="555" y="430" as="sourcePoint" />
            <mxPoint x="385" y="430" as="targetPoint" />
            <mxPoint as="offset" />
          </mxGeometry>
        </mxCell>
        <mxCell id="i3rzpm_yN1FolRG868D3-33" value="" style="points=[];perimeter=orthogonalPerimeter;rounded=0;shadow=0;strokeWidth=1;" vertex="1" parent="1">
          <mxGeometry x="375" y="430" width="10" height="40" as="geometry" />
        </mxCell>
        <mxCell id="i3rzpm_yN1FolRG868D3-34" value="Hiển thị bình luận thất bại&lt;br&gt;và reload lại trang Blogs" style="html=1;verticalAlign=bottom;endArrow=block;exitX=0.5;exitY=1;exitDx=0;exitDy=0;exitPerimeter=0;" edge="1" parent="1" target="i3rzpm_yN1FolRG868D3-19">
          <mxGeometry width="80" relative="1" as="geometry">
            <mxPoint x="375" y="469" as="sourcePoint" />
            <mxPoint x="205" y="469" as="targetPoint" />
            <mxPoint as="offset" />
          </mxGeometry>
        </mxCell>
        <mxCell id="i3rzpm_yN1FolRG868D3-35" value="Đăng tải Blogs" style="text;align=center;fontStyle=1;verticalAlign=middle;spacingLeft=3;spacingRight=3;strokeColor=none;rotatable=0;points=[[0,0.5],[1,0.5]];portConstraint=eastwest;" vertex="1" parent="1">
          <mxGeometry x="340" y="80" width="80" height="26" as="geometry" />
        </mxCell>
        <mxCell id="i3rzpm_yN1FolRG868D3-36" value="Đăng nhập thành công" style="html=1;verticalAlign=bottom;endArrow=block;" edge="1" parent="1" source="i3rzpm_yN1FolRG868D3-21" target="i3rzpm_yN1FolRG868D3-19">
          <mxGeometry width="80" relative="1" as="geometry">
            <mxPoint x="385" y="180" as="sourcePoint" />
            <mxPoint x="205" y="180" as="targetPoint" />
            <mxPoint as="offset" />
            <Array as="points">
              <mxPoint x="350" y="180" />
              <mxPoint x="270" y="180" />
            </Array>
          </mxGeometry>
        </mxCell>
      </root>
    </mxGraphModel>
  </diagram>
</mxfile>
